<svg id="Layer_1" data-name="Layer 1" xmlns="http://www.w3.org/2000/svg" viewBox="0 0 512 512"><defs><style>.cls-1{fill:#f0f0f0;}.cls-2{fill:#cf142b;stroke-width:2.31px;}.cls-2,.cls-3,.cls-4,.cls-5{stroke:#161111;}.cls-2,.cls-4,.cls-5{stroke-linecap:round;stroke-linejoin:round;}.cls-3,.cls-4,.cls-5{fill:none;}.cls-3{stroke-miterlimit:9.74;}.cls-3,.cls-4{stroke-width:2.31px;}.cls-5{stroke-width:2.31px;}</style></defs><circle class="cls-1" cx="256" cy="256" r="256"/><g id="Layer_2" data-name="Layer 2"><g id="g1009"><path id="path3484-5" class="cls-2" d="M297.46,365.28c7.44-7.32,18.29-10.51,25.7-29.66,6.22-16.49,11-42.54,15.19-58.24,1.56-5.53,3.64-16.24,5.53-24.08,1.64-6.86,4.58-14,5.42-16.8,1.62-5.51,2.17-11.94,2.89-16.43,1.56-9.78,2.89-16.57-4.49-15.85-7.71.77-9.94,1.91-13.12,6.55a69.11,69.11,0,0,0-8.92,17.35c-3,10-5.21,19-7.91,26-3.13,8.1-3.71,7-8.26,16.61-6.3-8.36-6.74-15.12-8.3-26.76a372.86,372.86,0,0,1-3.26-37.16c-.82-25-2.28-51.09-2.58-60.78-.82-12.8.07-31.2-2.93-40.66C291,100.92,288,94.85,282.06,95c-6.82,0-11.17,5.41-12.09,11-.66,4.41-1,12.86-1.26,18.56-.39,8.29-.34,15.4,0,23.56.35,9,.08,36.47-.1,45.41-.33,16.52-2.38,17.43-5.45,17.22-2.36-2-1.17-33.74-2.1-61.16-.36-10.4-.63-24.15-.81-33.7-.15-7.73-.14-17-1-23-1.42-10.24-4.43-16.83-11.86-16.83-5,0-9.15.17-11.45,11.55-1.23,6.14-1.76,21.12-1.59,29.32.19,9.16.22,14.56.47,27.17.45,23,2.44,64.86-3.06,65.91-4.81-1-4.1-10.08-4.94-32-.33-8.62-1.06-23.38-1.52-33.32-.55-11.89-1.21-29.2-1.51-37.13-.81-7.32-1.52-17.15-10.74-16.32-4.84-.59-8.39,3.1-10.45,16.15-1.15,7.27-.37,36.23.07,45.86.87,19.18.6,23.87.7,35.94.11,11.72,1.24,27.68-3.12,27.95-5.26-.07-3.75-8.54-4.61-22-.85-13.17-1.38-30-1.28-26.11,0-6.78-.83-16.74-1.45-25.07-.47-6.5-.18-13.68-7.23-13.1s-11.55,3-13,15.26c-1,7.94-1.22,25.1-1.43,31.33.77,15.82-3.09,48-5,58.51-.52,7.44-3.82,21.82-5.06,32.18-2.67,22.31-3.73,37.74-.78,51.1,2.32,11.67,4,20.79,8.48,30.15,4.19,8.69,12,17,13.76,24.16,3.36,13.94,1.79,40.85,1.79,52.15s9.82,11.92,30.15,7.54c33.24-7.16,51.4,7.16,78.85-3.39-3.48-31.28,3.3-50.08,3.13-61.39Z"/><path id="path3488-5" class="cls-3" d="M252.07,335c.76-38.65,35.8-80.78,49.27-89.07"/><path id="path3953-9" class="cls-3" d="M202.14,271.57c10.35-4.09,21.1-7.05,31.61-10.65,12.88-3.63,25.34-8.83,38.63-10.89,6.4-1.3,21.71-5.38,28.24-5.82"/><path id="path3960-0" class="cls-4" d="M182.14,371.94c1.1,2,3.72,2.08,7.38,2.35,4,.06,4.65.19,7.2.17,4.52-.06,7.43-.07,11.95,0,3.43-.11,15.06-2.35,23.71-3,4.85-.39,8.71.75,11.22.92"/><path id="path3962-8" class="cls-5" d="M237.58,371.44c.73.6,7.3.57,12.13,2.06,4.26,1.31,7.24,1.59,8,1.9,3,.32,1,1.9,17.66.56,10.34.66,19.49-8.27,22.06-10.68"/></g></g></svg>